<svg width="42.9" height="28.86" viewBox="0 0 42.9025 28.8564" fill="none" xmlns="http://www.w3.org/2000/svg">
<path d="M21.4512 28.1323C32.8985 28.1323 42.1783 21.9967 42.1783 14.4282C42.1783 6.85965 32.8985 0.724121 21.4512 0.724121C10.004 0.724121 0.724121 6.85965 0.724121 14.4282C0.724121 21.9967 10.004 28.1323 21.4512 28.1323Z" stroke="#2FB0E9" stroke-width="1.44828" stroke-miterlimit="10"/>
<path d="M13.1402 13.9893C13.1402 13.123 12.735 12.6758 11.9385 12.6758H9.25561V11.1108H12.4136C14.0904 11.1108 15.0126 12.1169 15.0126 13.9614V18.6145H13.1402V13.9893ZM21.0332 18.8101C18.4481 18.8101 16.6735 17.1752 16.6735 14.4784V11.1108H18.4481V14.2269C18.4481 14.5203 18.4621 14.7858 18.518 15.0373C19.7476 14.8138 20.2786 14.171 20.2786 12.8156V11.1108H22.0113V12.8994C22.0113 14.7998 21.103 15.7919 18.9931 16.2251C19.4402 16.8958 20.1808 17.2731 21.0751 17.2731C22.7379 17.2731 23.8418 16.0155 23.8418 14.0871V11.1108H25.6164V14.2548C25.6164 16.9656 23.7719 18.8101 21.0332 18.8101ZM27.081 18.6145V17.0774H28.6181C30.3508 17.0774 31.1193 16.3927 31.1193 14.8277C31.1193 13.3605 30.4486 12.6619 29.0652 12.6619H27.1509V11.1108H29.4984C31.79 11.1108 32.9917 12.3405 32.9917 14.688C32.9917 17.2591 31.5525 18.6145 28.8416 18.6145H27.081Z" fill="#2FB0E9"/>
</svg>
