<svg preserveAspectRatio="none" overflow="visible" style="display: block;" width="80" height="109" viewBox="0 0 80 109" fill="none" xmlns="http://www.w3.org/2000/svg">
<g id="Layer_1" clip-path="url(#clip0_0_4)">
<path id="Vector" d="M0.873161 12.1013C0.983673 11.5738 1.25995 11.255 1.6357 11.1231H74.9607C75.4138 11.1231 75.8338 10.8813 75.8669 10.5186L76.1543 7.6389C76.1985 7.17727 76.0548 6.69366 75.447 6.58375C64.6168 4.7592 53.7534 3.76999 42.7353 3.52818H31.7835C21.5058 3.72603 11.4161 4.69325 1.29311 6.41888C0.895263 6.48482 0.342701 6.10013 0.287445 5.81436L0.033266 4.42946C-0.0219903 4.15468 0.000112225 3.61611 0.121676 3.37431C0.232188 3.14349 0.663187 2.89069 1.03893 2.82475C11.0293 1.12111 21.0306 0.208833 31.1867 0H41.6081C53.9523 0.263789 66.1529 1.39589 78.2982 3.51719C79.2597 3.68206 80.0885 4.28658 79.9891 5.35273L79.2818 13.1675C79.2044 14.0798 78.4198 14.7392 77.5357 14.7282H75.3144C74.9497 14.7063 74.5076 15.036 74.4745 15.5416L67.8658 107.604C67.8106 108.428 67.2691 108.989 66.385 108.989H9.38262C8.26645 108.989 7.78019 108.384 7.70283 107.34L0.873161 12.1013ZM50.2722 34.7872L53.9634 24.7962H48.0509L47.9736 22.3562H44.9897L44.9787 27.2253L49.9407 27.2692L47.1779 34.7872H50.2833H50.2722ZM28.2803 28.4563L28.2582 34.7982H31.3967L31.3746 27.8078C31.0762 26.2471 30.0374 24.8841 28.3466 24.8622L21.7821 24.7852V34.8092H24.8986L24.9207 27.3022L27.0757 27.2473C27.8272 27.2253 28.3024 27.7309 28.2913 28.4673L28.2803 28.4563ZM39.9062 32.3362H33.7396V34.7872H43.0889L43.0447 27.4781C43.0447 25.9393 41.8291 24.9831 40.3814 24.8072L33.7396 24.7852V30.1489H36.8229V27.2582L38.9558 27.2363C39.3868 27.2363 39.9835 27.6429 39.9835 28.1046L39.9062 32.3362ZM18.5441 49.8782L22.2463 39.8872H16.2676L16.2454 37.4581H13.2395L13.2285 42.3162L18.1794 42.3712L15.4277 49.8782H18.5331H18.5441ZM24.8875 49.8782H27.9708V39.8762H23.3072V42.3162L24.8875 42.3822V49.8672V49.8782ZM36.9113 43.9209V49.8782H39.9946V43.2065C39.9504 41.5359 38.6905 39.9531 36.9002 39.9311L30.4132 39.8652V49.8672H33.4964V42.3822C34.3916 42.2942 35.2204 42.2723 36.0824 42.3822C36.7345 42.4591 36.9002 43.2944 36.9002 43.899L36.9113 43.9209ZM41.9728 47.4381V49.8782H46.7579C48.9129 49.2847 50.2612 47.1963 49.9297 44.9651C50.2943 42.6789 48.9793 40.4917 46.7579 39.8982H41.9728V42.3382L45.2439 42.4042C46.4154 42.4261 46.9016 43.7891 46.9127 44.8112C46.9237 45.8334 46.4596 47.3502 45.255 47.3722L41.9728 47.4491V47.4381ZM58.1076 49.8892H61.1909V39.8872H51.8305V42.3382H58.0965V49.8892H58.1076ZM54.9801 44.5255H51.8415L51.8636 49.9222H55.0022L54.9801 44.5255ZM36.5797 65.3868C38.0164 65.7935 39.1878 66.3101 40.4256 67.1674L38.79 69.9482C38.7347 70.0471 38.6905 70.3439 38.7016 70.4538C38.7126 70.5637 39.1215 70.5637 39.2542 70.5747L48.6477 68.0027L46.1501 58.8251L45.9291 58.5283C45.8849 58.4623 45.5313 58.5832 45.4871 58.6602L43.7962 61.5069L40.5914 60.0011C36.4471 58.5613 33.176 60.3968 31.1204 64.0898L29.6727 66.6838C29.6175 66.7827 29.6506 67.1894 29.7611 67.1894H30.3026C31.9493 65.5627 34.1927 64.8592 36.5576 65.3758L36.5797 65.3868ZM32.4687 81.39C31.883 79.8733 31.6398 78.3125 31.8498 76.6528L35.0989 76.5979C35.2204 76.5979 35.5299 76.6528 35.5299 76.5759V76.0813L30.391 71.1132L28.3466 69.2337L21.6164 76.1143L21.6385 76.5539C21.6385 76.6418 21.9368 76.6858 22.0474 76.6858L25.3738 76.6528C25.1859 80.4448 26.0921 84.0499 29.6506 85.4788C31.894 86.3801 34.2921 86.2592 36.7345 86.1053C36.9665 86.0943 37.276 85.9294 37.2981 85.7645C37.3754 85.138 33.9164 85.0831 32.4797 81.401L32.4687 81.39ZM48.8798 88.4464L49.2887 88.3695C49.3771 88.3585 49.3329 87.9738 49.2887 87.8859L47.7084 85.0281C50.8359 83.3355 53.4992 81.0383 53.234 77.3453C53.1235 75.8175 52.6593 74.3227 51.8415 72.9818L50.1617 70.212C50.0181 70.157 49.6202 70.124 49.6092 70.2449L49.5539 70.7505C50.0954 73.0367 49.4545 75.2569 47.8631 76.9386C46.8685 77.9278 45.8296 78.6752 44.4703 79.3457L42.8679 76.5649C42.8127 76.466 42.6137 76.2681 42.4922 76.2681C42.3706 76.2681 42.2048 76.444 42.1054 76.5649L39.663 86.0613L48.8798 88.4464Z" fill="#155CA9"/>
<path id="Vector_2" d="M36.5796 65.3868C34.2147 64.8702 31.9713 65.5737 30.3246 67.2114H29.7831C29.6726 67.2004 29.6395 66.7937 29.6947 66.6948L31.1424 64.1008C33.198 60.4078 36.4691 58.5723 40.6133 60.0121L43.8182 61.5179L45.509 58.6712C45.5533 58.5942 45.8958 58.4733 45.9511 58.5393L46.1721 58.836L48.6697 68.0137L39.2761 70.5857C39.1435 70.5857 38.7346 70.5747 38.7236 70.4648C38.7125 70.3548 38.7567 70.0581 38.812 69.9592L40.4476 67.1784C39.2098 66.3211 38.0384 65.8045 36.6017 65.3978L36.5796 65.3868Z" fill="white"/>
<path id="Vector_3" d="M48.8797 88.4464L39.6629 86.0613L42.1053 76.5649C42.2047 76.433 42.3705 76.2571 42.4921 76.2681C42.6136 76.2791 42.8015 76.455 42.8678 76.5649L44.4702 79.3457C45.8185 78.6752 46.8573 77.9278 47.863 76.9386C49.4543 75.2679 50.1064 73.0367 49.5538 70.7505L49.6091 70.2449C49.6201 70.124 50.029 70.157 50.1616 70.212L51.8414 72.9817C52.6592 74.3227 53.1234 75.8175 53.2339 77.3453C53.4991 81.0383 50.8358 83.3465 47.7082 85.0281L49.2886 87.8859C49.3328 87.9738 49.388 88.3585 49.2886 88.3695L48.8797 88.4464Z" fill="white"/>
<path id="Vector_4" d="M32.4686 81.39C33.8942 85.0721 37.3643 85.127 37.2869 85.7535C37.2648 85.9184 36.9554 86.0833 36.7233 86.0943C34.281 86.2482 31.8829 86.3691 29.6395 85.4678C26.081 84.0499 25.1747 80.4338 25.3626 76.6418L22.0362 76.6748C21.9257 76.6748 21.6383 76.6198 21.6273 76.5429L21.6052 76.1033L28.3354 69.2227L30.3799 71.1023L35.4966 76.0703V76.5649C35.5187 76.6528 35.2093 76.5869 35.0877 76.5869L31.8387 76.6418C31.6287 78.3015 31.8608 79.8623 32.4575 81.379L32.4686 81.39Z" fill="white"/>
<path id="Vector_5" d="M39.9061 32.3362L39.9834 28.1046C39.9834 27.6429 39.3977 27.2253 38.9557 27.2363L36.8338 27.2582V30.1489H33.7395V24.7852L40.3923 24.8072C41.84 24.9831 43.0446 25.9393 43.0557 27.4781L43.0999 34.7982H33.7505V32.3472H39.9171L39.9061 32.3362Z" fill="white"/>
<path id="Vector_6" d="M28.2801 28.4563C28.2801 27.7199 27.816 27.2143 27.0645 27.2363L24.9095 27.2912L24.8874 34.7982H21.771V24.7742L28.3354 24.8512C30.0262 24.8731 31.0761 26.2471 31.3634 27.7968L31.3856 34.7982H28.247L28.2691 28.4563H28.2801Z" fill="white"/>
<path id="Vector_7" d="M36.9112 43.9209C36.9112 43.3164 36.7344 42.4811 36.0934 42.4042C35.2314 42.2942 34.4025 42.3162 33.5074 42.4042V49.8892H30.4241V39.8872L36.9112 39.9531C38.7015 39.9751 39.9613 41.5578 40.0055 43.2285V49.9002H36.9112V43.9429V43.9209Z" fill="white"/>
<path id="Vector_8" d="M18.544 49.8782H15.4386L18.1904 42.3712L13.2394 42.3162L13.2504 37.4471L16.2564 37.4581L16.2785 39.8762L22.2462 39.8982L18.544 49.8782Z" fill="white"/>
<path id="Vector_9" d="M50.2721 34.7872H47.1778L49.9406 27.2802L44.9786 27.2253L44.9896 22.3562H47.9735L48.0508 24.7852L53.9743 24.7962L50.2721 34.7872Z" fill="white"/>
<path id="Vector_10" d="M41.9726 47.4381L45.2549 47.3612C46.4705 47.3392 46.9347 45.8554 46.9126 44.8002C46.8905 43.7451 46.4153 42.4151 45.2438 42.3932L41.9726 42.3272V39.8762L46.7578 39.8872C48.9791 40.4807 50.2942 42.6679 49.9295 44.9541C50.2611 47.1853 48.9128 49.2847 46.7578 49.8672H41.9726V47.4381Z" fill="white"/>
<path id="Vector_11" d="M58.1075 49.8892V42.3382H51.8414V39.8872H61.2018L61.1908 49.8782L58.1075 49.8892Z" fill="white"/>
<path id="Vector_12" d="M24.8874 49.8782L24.8764 42.3932L23.296 42.3272L23.3071 39.8872H27.9707V49.8782H24.8874Z" fill="white"/>
<path id="Vector_13" d="M54.8363 44.6903H51.6977V50.076H54.8363V44.6903Z" fill="white"/>
</g>
<defs>
<clipPath id="clip0_0_4">
<rect width="80" height="109" fill="white"/>
</clipPath>
</defs>
</svg>
