<svg preserveAspectRatio="none" overflow="visible" style="display: block;" width="108" height="89" viewBox="0 0 108 89" fill="none" xmlns="http://www.w3.org/2000/svg">
<g id="Layer_1" clip-path="url(#clip0_0_6)">
<path id="Vector" d="M38.6821 66.7192C34.5712 63.1278 31.8091 58.3793 30.9099 53.0184C25.8938 50.8519 24.5481 44.0876 27.107 39.4991C27.9261 38.0312 29.204 37.0433 30.8022 36.6617C30.5527 31.8917 31.5905 27.4386 33.7583 23.4133C32.7791 23.8657 32.2833 24.3057 31.2856 24.475C32.348 21.6007 34.2356 19.4557 36.2987 17.4276C38.4388 15.3196 40.8129 13.8116 43.7413 12.713L39.5781 11.7651C39.3441 11.7128 38.9438 11.3373 38.9099 11.1035C38.8791 10.8696 39.1994 10.371 39.4365 10.2818C43.2702 8.79229 47.1008 8.1768 51.3287 8.44761L47.8553 6.01642C46.873 5.33015 46.2448 3.78219 46.6543 3.62216L47.3626 3.34827C51.8029 3.53907 55.8953 4.71774 60.04 6.56729L58.1432 3.71449C57.4165 2.61891 57.3303 0.347752 58.2232 0.0246196C58.4265 -0.0492393 58.9715 0.0553942 59.1316 0.206189C60.9577 1.9388 63.0085 3.26518 65.2502 4.3823L71.7352 7.61362C74.9068 9.19236 77.7706 11.1342 80.3849 13.4946C81.3949 14.4056 82.0939 15.4057 82.8607 16.489C83.5104 17.4061 84.5789 17.997 85.3149 18.9017C88.5112 22.8193 90.5435 27.6232 90.8576 32.7257C91.1132 36.8833 90.3372 40.8224 89.1516 44.7216C90.7344 45.7279 91.8368 47.2451 92.1232 49.1346C92.8714 54.0832 89.8106 59.7519 84.5974 60.2689C83.0423 63.5464 80.8345 66.3653 77.863 68.4703C75.6028 70.126 73.2502 71.3846 70.6359 72.2802C68.6466 73.9574 66.5712 75.3207 64.0985 76.0655C59.1162 77.7611 53.9307 77.5242 49.127 75.4284C45.7798 73.9666 43.1963 71.6401 41.0716 68.7011C40.5081 67.9194 39.4981 67.4301 38.6821 66.7161V66.7192ZM86.4727 56.1512C88.4373 54.4002 89.2933 51.4889 88.582 49.03C88.1386 47.4944 86.7406 46.8635 85.2717 47.2912C85.1024 46.8973 84.9299 46.3619 84.9423 45.9402C85.2225 36.6248 81.6413 25.4967 73.0038 21.0744C70.5928 22.3762 64.2617 23.6964 64.5727 22.3885C64.8437 21.2467 67.4827 20.185 67.8276 17.6861L64.4527 19.1849C61.5396 20.4805 58.5404 21.2898 55.2948 21.1821C55.0978 21.176 54.6759 20.9359 54.602 20.7667C54.5312 20.5974 54.6636 20.1389 54.836 20.0065L57.6998 17.8369C45.749 19.3264 37.9677 26.9154 34.6728 38.4897C34.5096 39.0621 34.1709 39.5945 33.7798 40.01C32.3295 39.1237 30.7252 39.5361 29.9461 41.0348C28.7021 43.426 29.047 46.6265 30.6605 48.7777C32.0955 50.6918 33.7829 49.3378 33.8999 50.8149C34.3957 57.0252 37.7737 62.6693 43.0639 65.9314C45.0593 69.4859 48.1878 71.8524 52.0277 73.1142C58.0169 75.0837 64.5235 73.8128 69.1239 69.4243C72.5727 68.3441 75.6089 66.51 78.2017 63.968C80.0924 62.1123 81.3734 59.9119 82.3403 57.4376C82.9068 55.9912 84.4896 57.9146 86.4665 56.1512H86.4727Z" fill="#EA2427"/>
<path id="Vector_2" d="M74.5527 73.068C83.0023 76.3147 91.3072 79.9954 94.5712 88.9969H37.8229C39.224 87.5905 40.1293 85.8333 39.7968 83.9745L39.3564 81.5064L32.4804 69.9906C34.7467 69.2889 36.8745 68.7165 39.1871 68.4364C42.8637 74.6406 49.2317 78.2781 56.4219 78.6413C62.1032 78.9952 67.6089 76.8902 71.9138 73.2496C72.8006 72.4987 73.6597 72.7203 74.5527 73.0619V73.068Z" fill="#EA2427"/>
<path id="Vector_3" d="M5.31794 89C3.48576 89 1.93072 88.5384 0.896074 87.0858C-0.0646651 85.741 -0.360277 83.5621 0.545035 82.0357L6.68514 71.6678L13.3703 60.5366C14.5373 58.5917 16.1262 57.3361 18.3587 57.253C20.5851 57.1699 22.4419 58.3855 23.6305 60.3827L36.699 82.3435C37.4935 83.676 37.0808 85.544 36.3572 86.7781C35.7136 87.8736 34.2972 88.9569 32.6867 88.9569L5.32102 88.9969L5.31794 89ZM20.8099 77.5734L21.6628 69.6028C21.8168 68.1533 21.94 66.6484 21.8353 65.2667C21.6905 63.3463 20.1447 62.5585 18.4049 62.6016C16.8037 62.6416 15.3318 63.454 15.2333 65.2728C15.1409 66.9962 15.3287 68.8057 15.5258 70.5968C15.7844 72.9603 15.8891 75.2561 16.2987 77.5519C16.4681 78.4997 17.826 78.829 18.5158 78.8229C19.1747 78.8198 20.7082 78.5582 20.8129 77.5734H20.8099ZM18.1432 85.5379C19.9661 85.7994 21.2779 84.5254 21.3149 82.9128C21.3487 81.3648 20.0801 80.1646 18.4049 80.2292C16.9885 80.2846 15.8614 81.3987 15.7875 82.6881C15.7105 84.0945 16.5974 85.3132 18.1432 85.5348V85.5379Z" fill="#EA2427"/>
<path id="Vector_4" d="M104.188 26.6723C101.278 27.7648 95.5135 28.9312 95.5196 26.6354C95.5196 25.9399 96.0708 25.2536 96.9084 25.2136C99.4611 25.0905 101.965 24.3734 103.954 22.7455C104.108 21.6591 104.856 20.8313 106.005 21.0898C107.387 21.5453 108.135 23.4071 107.209 24.6443C106.482 25.6137 105.318 26.2476 104.191 26.6723H104.188Z" fill="#EA2427"/>
<path id="Vector_5" d="M94.8576 21.5053C94.0939 21.9638 93.2995 22.2285 92.6651 21.5145C92.1878 20.979 92.2956 19.9111 93.0623 19.3941C94.99 18.0954 97.0377 16.5782 97.8753 14.3256C97.5704 13.6485 97.3087 12.7437 97.7644 12.1836C98.251 11.5866 99.1008 11.3989 99.8737 11.7189C100.757 12.0852 101.309 12.9776 101.472 13.7131C102.149 16.7783 97.8045 19.7357 94.8576 21.5053Z" fill="#EA2427"/>
<path id="Vector_6" d="M107.806 33.1904C108.08 33.8982 108.077 34.7999 107.723 35.4707C106.734 37.3388 101.543 36.9756 99.0023 35.6769L96.3048 34.2982C95.612 33.9443 95.806 32.8703 96.2556 32.4548C96.8037 31.944 97.4226 31.8855 98.1278 32.2825C100.157 33.4273 102.657 33.7166 104.927 33.2611C105.241 32.6703 105.727 32.1379 106.294 32.1286C106.913 32.1163 107.535 32.4856 107.809 33.1904H107.806Z" fill="#EA2427"/>
<path id="Vector_7" d="M50.2294 38.3912C48.5666 39.6284 46.5281 39.1637 45.4442 37.5234C44.388 35.9262 44.6836 33.772 45.8814 32.2333C47.1286 30.633 49.6474 30.4114 51.0115 32.0055C52.6313 33.8982 52.2525 36.8864 50.2294 38.3912Z" fill="#EA2427"/>
<path id="Vector_8" d="M74.9253 41.7795C73.5089 43.1367 71.2918 42.9151 70.1062 41.441C68.8283 39.853 68.9053 37.665 70.0262 36.0001C70.7313 34.9507 71.8399 34.4398 73.05 34.5137C74.2232 34.5844 75.2979 35.3107 75.8399 36.5017C76.6405 38.2589 76.4219 40.3454 74.9284 41.7795H74.9253Z" fill="#EA2427"/>
<path id="Vector_9" d="M62.4604 42.4689L60.2248 41.2502C59.0516 40.6101 57.0562 42.038 56.0277 41.4872C54.7621 40.8071 57.7213 37.5603 60.7513 38.3697C62.7159 38.8929 64.3972 41.5303 63.5196 42.432C63.341 42.6135 62.719 42.6135 62.4604 42.472V42.4689Z" fill="#EA2427"/>
<path id="Vector_10" d="M49.7798 26.8631C46.4911 27.0354 44.117 30.0144 44.5173 27.7925C46.3002 25.7829 48.7975 24.635 51.458 24.8843C51.8953 25.1028 52.3141 25.5029 52.3449 25.8814C52.3695 26.2014 51.806 26.7554 51.458 26.7739L49.7829 26.86L49.7798 26.8631Z" fill="#EA2427"/>
<path id="Vector_11" d="M72.6159 28.171C76.6497 28.7834 78.9715 33.0026 78.0539 33.4027C77.8876 33.4766 77.4904 33.3935 77.3826 33.2488C74.8699 29.8636 71.2548 30.4299 71.4303 28.9527C71.4734 28.5772 72.154 28.1002 72.6189 28.171H72.6159Z" fill="#EA2427"/>
<path id="Vector_12" d="M63.1603 58.0034C63.679 53.4181 61.1254 49.365 57.4567 48.9505C53.7879 48.536 50.3934 51.917 49.8747 56.5023C49.356 61.0876 51.9096 65.1408 55.5784 65.5553C59.2471 65.9698 62.6417 62.5887 63.1603 58.0034Z" fill="#EA2427"/>
</g>
<defs>
<clipPath id="clip0_0_6">
<rect width="108" height="89" fill="white"/>
</clipPath>
</defs>
</svg>
