<svg width="30" height="41" viewBox="40 33 30 41" fill="none" xmlns="http://www.w3.org/2000/svg">
<path d="M68.0506 53.2727C67.2045 50.7895 66.1046 48.5131 64.7509 46.2368C62.551 42.4705 60.0551 38.9525 57.263 35.5587C56.6284 34.8138 55.4016 34.8138 54.767 35.5587C52.2711 38.58 50.0712 41.6841 47.9983 44.9538C46.3907 47.5612 45.037 50.1273 44.0217 53.0244C41.6949 59.3154 43.2602 67.2204 49.5636 70.4487C55.9938 73.7597 64.7086 71.7317 67.7545 64.7372C69.3621 61.0537 69.3621 56.9976 68.0506 53.2313V53.2727Z" fill="white"/>
<path d="M56.5861 68.4207C55.0208 68.4207 53.5402 68.0896 52.1018 67.5102C47.956 65.7305 45.9677 61.84 46.0523 57.4529C46.0523 56.9976 46.5176 56.7079 46.8984 56.7079C47.3637 56.7079 47.7445 57.0804 47.7445 57.6185C47.7445 61.0123 49.0559 64.0336 52.1441 65.6891C55.2324 67.3032 57.3899 66.1444 57.3899 67.5929C57.3899 68.0482 57.0515 68.4621 56.5438 68.4621L56.5861 68.4207Z" fill="white"/>
</svg>
