<svg width="58" height="27" viewBox="0 0 58 27" fill="none" xmlns="http://www.w3.org/2000/svg">
<g id="Layer_1" clip-path="url(#clip0_0_1)">
<path id="Vector" d="M20.6355 12.1325C18.6816 13.0891 15.899 13.8872 12.285 14.552C9.95699 14.977 5.70063 15.1635 2.78394 15.2435C4.09544 13.1957 5.48741 11.2278 7.14624 9.47309C11.3744 4.95244 16.4059 8.38323 20.6355 12.1325Z" fill="white"/>
<path id="Vector_2" d="M57.9707 3.17235C58.3449 5.885 55.0272 7.1081 51.9751 7.79959L41.9658 10.0073C36.1042 11.3103 30.7254 13.9963 26.2022 17.9041C24.5434 20.2703 22.8564 22.2382 20.582 24.0462C14.4255 28.6988 3.34603 28.0073 0.241597 20.8819C-0.373926 19.2338 0.214777 17.7442 1.71403 16.9195C1.74085 16.8928 9.82311 16.6264 12.5802 16.1214C17.318 15.2434 20.468 13.8698 22.8041 12.692C24.2229 11.9765 25.588 11.309 26.9518 10.4843C30.4049 8.38315 33.6958 6.38863 37.3902 4.68722C41.3516 2.90588 45.2056 1.25643 49.4607 0.353101C53.127 -0.444975 57.5429 -0.0452711 57.972 3.17235H57.9707Z" fill="white"/>
</g>
<defs>
<clipPath id="clip0_0_1">
<rect width="58" height="27" fill="white"/>
</clipPath>
</defs>
</svg>
