<svg width="39" height="37" viewBox="0 0 39 37" fill="none" xmlns="http://www.w3.org/2000/svg">
<g id="Layer_1" clip-path="url(#clip0_0_1)">
<path id="Vector" d="M22.833 30.0168C22.833 30.404 22.7462 30.6316 22.2723 30.9145L12.4731 36.8255C12.1749 37.0021 11.9654 37.0361 11.72 36.9659C11.6841 36.9489 11.6502 36.9489 11.6142 36.9127L1.18674 31.4058C0.645158 31.1059 0.154353 30.8421 -0.00219727 30.2104V17.0163C-0.00219727 16.3654 0.907485 15.9081 1.41522 15.6444L10.9161 10.4714C11.354 10.2417 11.8956 10.1715 12.3335 10.4182L15.2741 12.0199V12.0029L22.2194 15.9443C22.7272 16.2251 22.8139 16.4548 22.8139 16.8057L22.8308 30.0168H22.833Z" fill="white"/>
<path id="Vector_2" d="M38.9999 7.11296V19.3052C38.9999 20.0794 38.6677 20.5538 38.0204 20.9239L28.3439 26.3606C27.6965 26.7307 27.1021 26.7477 26.4547 26.3968L24.5994 25.3758V16.808C24.5994 15.1362 23.4274 14.4683 23.0424 14.2577L15.291 9.84197L15.3079 7.02788C15.3249 6.62374 15.5005 6.16643 15.8686 5.95585L26.4018 0.180915C26.8736 -0.0828393 27.4173 -0.0488065 27.925 0.217074L37.9337 5.54746C38.581 5.8814 39.002 6.3217 39.002 7.11296H38.9999Z" fill="white"/>
</g>
<defs>
<clipPath id="clip0_0_1">
<rect width="39" height="37" fill="white"/>
</clipPath>
</defs>
</svg>
