<svg width="175" height="38" viewBox="0 0 175.13 38" fill="none" xmlns="http://www.w3.org/2000/svg">
  <g transform="translate(79.4644, 3.933)" fill="#2C2969">
    <g>
      <path d="M13.7448 26.7398L6.33999 17.2859C4.27472 18.5567 3.30088 21.1852 3.4495 26.7398H0.0288448C-0.117565 19.7965 1.44414 16.666 4.57199 15.0107L5.42076e-06 9.16062V9.01175H3.7756L11.1804 18.4657C13.2456 17.2259 14.2483 14.5952 14.0997 9.01175H17.5204C17.6668 15.9839 16.074 19.0855 12.9484 20.7408L17.5492 26.5909V26.7375H13.7448V26.7398Z" />
      <path d="M23.1438 9.01175V19.0278H19.7232V9.01175H23.1438Z" />
      <path d="M36.7488 30.1369C36.7488 29.3993 37.3389 28.8372 38.0754 28.8372C38.8119 28.8372 39.3731 29.3993 39.3731 30.1369C39.3731 30.8746 38.7831 31.4656 38.0754 31.4656C37.3678 31.4656 36.7488 30.8746 36.7488 30.1369Z" />
      <path d="M39.7125 26.7398H36.4094V17.728C36.4094 13.6221 34.3442 11.5535 30.9812 11.5535C29.0047 11.5535 27.3232 12.2045 25.7304 13.031L24.5791 10.6092C26.9971 9.24949 29.2997 8.77846 31.5402 8.77846C36.2608 8.77846 39.7103 11.438 39.7103 17.5836V26.742L39.7125 26.7398Z" />
      <path d="M56.2879 29.0438V30.6991H54.165V34.0674H52.3371V30.6991H50.183V29.0438H56.2901H56.2879Z" />
      <path d="M42.4233 9.01175H58.9122V19.2055C58.9122 25.1134 56.1992 26.9464 52.57 26.9464C51.2434 26.9464 50.152 26.7975 49.0007 26.4442L49.3845 23.6092C50.2407 23.8758 51.2124 24.0225 52.0975 24.0225C54.4866 24.0225 55.6069 22.8693 55.6069 18.9122V11.9401H42.4211V9.0162L42.4233 9.01175ZM45.9327 31.6722H42.6296V16.8993H45.9327V31.6722Z" />
    </g>
    <path d="M81.1398 17.9124H94.3722C95.0798 17.9124 95.6544 18.4879 95.6544 19.1966V32.4343C95.6544 33.1431 95.0798 33.7185 94.3722 33.7185H81.1554C80.4477 33.7185 79.8732 33.1431 79.8732 32.4343V19.1811C79.8732 18.4812 80.4411 17.9124 81.1398 17.9124Z" />
    <path d="M71.2882 5.51285e-08H82.2845C82.8724 5.51285e-08 83.3493 0.477694 83.3493 1.06648V12.0668C83.3493 12.6556 82.8724 13.1333 82.2845 13.1333H71.3016C70.7137 13.1333 70.2368 12.6556 70.2368 12.0668V1.05537C70.2368 0.47325 70.7093 0.00222194 71.2882 0.00222194V5.51285e-08Z" />
    <path d="M66.1883 15.3795H76.6211C77.1779 15.3795 77.6304 15.8328 77.6304 16.3905V26.8286C77.6304 27.3863 77.1779 27.8396 76.6211 27.8396H66.1994C65.6426 27.8396 65.1901 27.3863 65.1901 26.8286V16.3793C65.1901 15.8283 65.6382 15.3795 66.1883 15.3795Z" />
    <path d="M86.2131 7.88751H92.7262C93.0745 7.88751 93.3562 8.16968 93.3562 8.51851V15.0351C93.3562 15.384 93.0745 15.6661 92.7262 15.6661H86.2198C85.8715 15.6661 85.5898 15.384 85.5898 15.0351V8.51184C85.5898 8.16746 85.8693 7.88751 86.2131 7.88751Z" />
  </g>
  <g transform="translate(66.4795, 2.4472)" fill="#2C2969">
    <path d="M15.9354 2.21293C15.9354 2.21293 14.3959 2.34624 14.3249 2.35291C9.4113 2.87504 5.5026 2.18627 2.04645 0.188843C1.51183 -0.108882 0.890693 -0.0511145 0.462555 0.337706C0.0255446 0.735414 -0.114209 1.37086 0.0965325 2.04407L4.79274 15.5773C2.31265 16.9815 0.664424 19.7854 0.664424 22.6405C0.664424 25.8599 2.79624 28.2906 5.62239 28.2906C7.05765 28.2906 8.24224 27.6974 8.95654 26.6198C9.92151 25.1622 9.97697 22.9293 9.11626 20.3253L3.43068 3.83265C6.73821 5.12798 10.4251 5.53235 14.6732 5.07021C14.6998 5.06577 14.7242 5.06577 14.7508 5.06132L16.1351 4.88358L15.9332 2.21293H15.9354ZM6.67832 21.2385C7.41037 23.4514 7.17966 24.4979 6.858 24.9845C6.60511 25.3689 6.18807 25.5622 5.62239 25.5622C4.20932 25.5622 3.25987 24.389 3.25987 22.6405C3.25987 20.8919 4.24037 19.1744 5.67563 18.1879L6.67832 21.2385Z" />
  </g>
  <g transform="translate(47.8106, 11.4)" fill="#2C2969">
    <path d="M18.5643 17.598L14.0212 0.00107425C14.0123 -0.0322532 11.5012 0.720948 11.5012 0.720948L14.5181 12.4456C10.2212 7.63751 6.56537 4.34698 3.88785 4.22256C1.70058 4.12035 0.103379 5.76451 0.0035542 8.21741C-0.0962706 10.6703 1.92906 15.8427 3.26006 18.98L5.63589 17.8446C4.5112 15.2006 2.52136 10.1904 2.59678 8.33739C2.61897 7.7997 2.80087 6.90431 3.77693 6.94874C6.18826 7.05984 11.3082 11.9256 16.1818 18.7556C16.4702 19.1488 16.8451 19.3199 17.2045 19.3355C17.4307 19.3466 17.6526 19.2955 17.8411 19.2022C18.4157 18.9155 18.6996 18.2868 18.5643 17.6002V17.598Z" />
  </g>
  <g transform="translate(27.3554, 13.072)" fill="#2C2969">
    <path d="M8.72247 10.8914C14.2084 9.6272 17.1455 7.03654 19.315 4.20148L17.3828 2.39958C14.3348 5.76343 12.0566 7.95416 5.10437 8.63404L2.49118 0L0 0.830965L5.11547 17.7013L7.60665 16.8726L6.33333 12.6556L22.5072 21.8762L23.6296 19.4077L8.71803 10.8892L8.72247 10.8914Z" />
  </g>
  <g transform="translate(9.9666, 15.9144)" fill="#2C2969">
    <path d="M17.8287 5.47863C16.5864 1.44822 12.5668 0.124011 9.22381 0.010698C5.04892 -0.129277 2.22498 1.12606 0 2.50359L1.55727 4.78542C3.38739 3.71672 5.19976 2.86131 9.22159 2.73911C12.4093 2.64357 14.641 4.04777 15.342 6.32959C15.7124 7.52716 15.5594 8.67584 14.8939 9.65789C13.9089 11.1132 11.9257 11.9842 9.59206 11.9842C6.0272 11.9842 4.03071 10.2645 2.30041 8.78027L0.652189 10.8821C2.88161 12.7907 4.78716 14.7148 9.59206 14.7148C12.7754 14.7148 15.5682 13.395 17.0634 11.1865C18.1814 9.53347 18.4543 7.50494 17.8265 5.47863H17.8287Z" />
  </g>
  <g transform="translate(0, 0.0038)" fill="#2C2969">
    <path d="M28.1484 0.962053C29.4883 4.85915 29.069 6.37888 27.8112 7.60755C25.9345 9.43834 21.8528 10.0916 16.3202 9.44723C11.4909 8.88511 6.19358 7.38315 2.50228 5.52792C1.96988 5.24352 1.37536 5.3124 0.949445 5.70567C0.521307 6.10337 0.377116 6.74326 0.576766 7.38093L4.13275 18.0213C1.65044 19.4366 0 22.2405 0 25.0867C0 28.3061 2.13181 30.7368 4.95797 30.7368C6.39544 30.7368 7.58003 30.1436 8.29212 29.066C9.25709 27.6085 9.31255 25.3755 8.45405 22.776L3.90204 9.0984C8.11021 10.7537 13.2856 11.9046 17.8842 12.1979C21.926 12.4556 27.3121 12.169 30.0251 9.32725C31.8197 7.4498 32.3233 4.72584 30.573 0L28.1506 0.964275L28.1484 0.962053ZM4.99568 20.6342L6.01611 23.6847C6.74816 25.8977 6.51745 26.9442 6.19579 27.4307C5.9429 27.8151 5.52808 28.0084 4.96018 28.0084C3.54711 28.0084 2.59766 26.8353 2.59766 25.0867C2.59766 23.3381 3.56929 21.6251 4.99568 20.6342Z" />
  </g>
</svg>
